<svg width="194" height="81" fill="none" xmlns="http://www.w3.org/2000/svg"><path fill-rule="evenodd" clip-rule="evenodd" d="M2.465 74.052c-.565 1.991.282 1.991.847 1.991s1.13-.57 1.13-1.138c0-.567-.565-1.135-.847-1.42l-1.13-.853c-1.13-.852-1.695-1.704-1.413-3.125.565-1.707 1.978-2.56 4.237-2.56 2.26 0 3.108 1.139 2.542 3.411H5.29c.565-1.136.283-1.704-.565-1.704-.565 0-1.13.283-1.13.853-.282.851.283 1.135.565 1.42l1.695 1.136c.565.286 1.13 1.421 1.13 1.99-.283 1.991-1.13 3.696-4.238 3.696-1.412 0-3.39-.569-2.542-3.696h2.26v-.001zm11.582 3.412c0-.285 0-.568.283-1.138-.848.853-1.695 1.421-2.542 1.421-1.695 0-2.542-.851-1.977-3.125.565-2.273 2.26-2.842 4.238-3.695 1.13-.286 1.412-.853 1.412-1.707 0-.285-.283-.568-.848-.568-1.13 0-1.412.568-1.694 1.704h-2.262c.566-1.99 1.412-3.41 4.238-3.41 3.39 0 3.108 1.706 2.824 3.127l-1.13 5.97c-.282.568-.282.852-.282 1.42h-2.26v.001zm.848-5.402c-.565.569-1.412.853-1.977 1.421-.565.285-.565.853-.848 1.138 0 .852 0 1.421.848 1.421 1.412 0 1.694-1.992 1.694-2.842l.283-1.138zm6.214-3.127l.282-1.704h.848l.282-1.138c.565-1.704 1.412-2.273 3.108-2.273h.847l-.564 1.99-.283-.285c-.566 0-.566.285-.566.568l-.282 1.138h.847l-.282 1.704h-1.13l-1.695 8.53h-2.26l1.694-8.53h-.846zm6.498 1.706c.565-2.275 1.979-3.696 4.237-3.696 3.39 0 3.39 1.707 2.826 4.549l-.283 1.42h-4.803l-.282 1.422c-.282 1.42.282 1.706.847 1.706.848 0 1.413-.852 1.695-1.992h2.26c-.564 2.275-1.694 3.696-3.955 3.696-2.824 0-3.673-1.135-3.107-4.263l.565-2.842zm4.803.285l.283-.852c0-.853 0-1.421-1.13-1.421s-1.13 1.136-1.412 1.99v.285h2.26v-.001zm7.91 6.538c-1.413.283-3.39.283-2.826-1.42l1.413-7.11h-1.13l.565-1.703h.847l.565-2.842h2.542l-.847 2.842h1.13l-.283 1.704h-1.13l-1.412 6.255c0 .568.847.568 1.13.568l-.564 1.706zm6.78-10.233l-.283 5.4v2.842c.283-.852.565-1.704.848-2.842l2.26-5.4h2.26l-4.52 10.516c-1.13 2.275-1.414 3.696-4.803 3.128l.565-1.707c.282 0 1.412.286 1.412-.568v-1.136l-.282-10.233H47.1zm19.492 6.252c0 .853 0 1.421-.282 2.275.282-.569.565-1.99.847-2.275l1.977-6.252h2.542L67.44 77.464h-2.543v-3.98c0-.853 0-1.705.282-2.843l-.847 2.56-1.695 4.262h-2.542V67.23h2.542l-.565 6.252c0 .285-.283 1.706-.283 2.275.283-.853.566-1.421.848-2.275l2.26-6.252h1.977l-.282 6.253zm10.453 3.981c-.282-.285 0-.568 0-1.138-.847.853-1.695 1.421-2.26 1.421-1.978 0-2.543-.851-2.26-3.125.565-2.275 2.26-2.842 4.238-3.695 1.13-.286 1.694-.853 1.694-1.707 0-.285-.564-.568-1.13-.568-1.13 0-1.412.568-1.412 1.704h-2.26c.282-1.99 1.13-3.41 4.238-3.41 3.108 0 3.108 1.706 2.824 3.127l-1.412 5.97v1.42h-2.26v.001zm.848-5.402c-.848.569-1.413.853-2.26 1.421-.282.285-.565.853-.565 1.138-.282.852 0 1.421.847 1.421 1.413 0 1.413-1.992 1.695-2.842l.283-1.138zm9.04-3.127c.283-.569.848-1.136 1.13-1.421.847-.569 1.413-.569 1.695-.569l-.565 2.843c-1.412 0-2.542.285-2.825 1.706l-1.13 5.97h-2.542l2.261-10.234h2.26l-.284 1.705zm7.627-.569c.848-1.135 1.978-1.42 2.543-1.42 1.13 0 2.26.852 1.694 2.558l-1.694 7.96h-2.26l1.412-6.824c.283-.853.283-1.706-.565-1.706-.847 0-1.412.852-1.694 1.991l-1.413 6.538h-2.26l2.26-10.233h2.26l-.282 1.136zm6.498 9.098l2.261-10.233h2.26l-2.26 10.233h-2.261zm2.261-11.372l.565-2.273h2.26l-.283 2.273h-2.542zm8.191 2.275c.847-1.136 1.979-1.422 2.543-1.422 1.129 0 2.261.853 1.696 2.56l-1.696 7.958h-2.261l1.413-6.823c.283-.853.283-1.706-.565-1.706-.849 0-1.413.852-1.696 1.991l-1.412 6.538h-2.261l2.261-10.233h2.26l-.282 1.136zm8.193 10.233c0 .285.284.285.284.568h.565c1.128 0 1.412-.851 1.693-1.42l.284-1.422c-.848 1.138-1.412 1.421-2.541 1.421-1.98 0-1.98-1.704-1.696-3.41l.847-3.696c.565-2.842 1.694-3.696 3.106-3.696 1.131 0 1.696.569 1.696 1.422l.284-1.136h2.26l-1.979 9.948c-.281 1.99-1.412 3.696-4.518 3.696-1.696 0-2.825-.569-2.543-2.275h2.258zm3.108-9.948c-1.131 0-1.131 1.135-1.412 1.99l-.847 3.41c0 1.138 0 1.991.847 1.991.565 0 1.129-.852 1.412-1.991l.565-3.126c.281-.57.564-2.274-.565-2.274zm13.841 5.4c-.564 1.991.284 1.991.568 1.991.846 0 1.412-.57 1.412-1.138 0-.567-.567-1.135-.848-1.42l-1.13-.853c-1.129-.852-1.694-1.704-1.413-3.125.284-1.707 1.98-2.56 4.239-2.56s2.825 1.139 2.541 3.411h-2.541c.282-1.136 0-1.704-.567-1.704-.565 0-1.129.283-1.412.853 0 .851.283 1.135.847 1.42l1.696 1.136c.281.286 1.129 1.421 1.129 1.99-.282 1.991-1.129 3.696-4.237 3.696-1.412 0-3.673-.569-2.541-3.696h2.257v-.001zm10.737-6.821l-.284 5.4c0 .852 0 1.991-.283 2.842h.283c0-.852.565-1.704.848-2.842l1.977-5.4h2.543l-4.804 10.516c-.847 2.275-1.412 3.696-4.518 3.128l.565-1.707c.281 0 1.129.286 1.412-.568v-1.136l-.283-10.233h2.544zm8.191 6.82c-.565 1.992.284 1.992.565 1.992.847 0 1.414-.57 1.414-1.138 0-.567-.567-1.135-.847-1.42l-1.131-.853c-1.129-.852-1.693-1.704-1.412-3.125.283-1.707 1.977-2.56 4.237-2.56 2.259 0 2.824 1.139 2.543 3.411h-2.543c.283-1.136 0-1.704-.565-1.704s-1.129.283-1.413.853c0 .851.284 1.135.848 1.42l1.696 1.136c.281.286 1.128 1.421 1.128 1.99-.283 1.991-1.128 3.696-4.236 3.696-1.413 0-3.673-.569-2.544-3.696h2.26v-.001zm10.454 3.413c-1.412.283-3.392.283-3.108-1.42l1.696-7.11h-1.131l.283-1.703h1.129l.565-2.842h2.261l-.565 2.842h1.131l-.567 1.704h-.847l-1.414 6.255c0 .568.567.568.847.568l-.28 1.706zm4.238-6.823c.565-2.275 1.977-3.696 4.237-3.696 3.389 0 3.389 1.707 2.824 4.549l-.283 1.42h-4.802l-.281 1.422c-.284 1.42 0 1.706.846 1.706.847 0 1.131-.852 1.412-1.992h2.543c-.565 2.275-1.695 3.696-4.236 3.696-2.544 0-3.392-1.135-2.825-4.263l.565-2.842zm4.802.285v-.852c.283-.853 0-1.421-.848-1.421-1.128 0-1.412 1.136-1.412 1.99l-.281.285h2.541v-.001zm8.758-2.56c.847-1.135 1.977-1.42 2.543-1.42.846 0 1.977.285 1.977 1.42.565-.852 1.412-1.42 2.541-1.42 1.977 0 2.261 1.137 2.261 2.274l-1.977 8.244h-2.261l1.412-6.823c.284-1.136.284-1.99-.565-1.99-1.131.284-1.412.853-1.695 1.99l-1.413 6.823h-2.26l1.412-7.108c.283-.852.283-1.704-.848-1.704-1.128.283-1.412.852-1.693 1.99l-1.412 6.822h-2.261l2.261-10.233h2.26l-.282 1.136zm-94.64-39.794l5.369-23.878 5.368 23.594-5.368.568-5.368-.284zm-28.25-.853v8.813c-2.824-.285-9.604-1.421-14.407-1.421-4.237 0-5.368.568-5.368 1.705 0 .852.565 1.42 3.672 1.42h4.52c9.605 0 12.713 3.697 12.713 10.517 0 10.52-10.453 11.94-19.775 11.94-6.215 0-11.018-.285-16.668-1.42v-9.666c3.39.853 8.192 1.138 12.148 1.138 5.085 0 7.627 0 7.627-1.421s-1.412-1.421-3.955-1.421h-4.52c-6.216 0-12.43-1.992-12.43-9.382 0-10.517 9.887-12.223 19.774-12.223 4.804 0 12.149.569 16.67 1.421zm101.984 0v8.813c-2.825-.285-9.606-1.421-14.407-1.421-4.237 0-5.367.568-5.367 1.705 0 .852.565 1.42 3.671 1.42h4.52c9.606 0 12.712 3.697 12.712 10.517 0 10.52-10.452 11.94-19.774 11.94-6.216 0-11.018-.285-16.668-1.42v-9.666c3.389.853 8.193 1.138 12.148 1.138 5.085 0 7.628 0 7.628-1.421s-1.412-1.421-3.957-1.421h-4.52c-6.214 0-12.429-1.992-12.429-9.382 0-10.517 9.887-12.223 19.774-12.223 4.803 0 11.867.569 16.669 1.421z" fill="#8033FD"/><path fill-rule="evenodd" clip-rule="evenodd" d="M100.774 31.415l2.825 13.075h.283l3.673-17.34h16.101l-9.039 32.405h-15.82l-4.236-10.802v-1.42l-3.956 12.222h-15.82l-9.04-32.404h16.668l3.39 17.34 2.825-13.076c6.78 2.842 12.146 0 12.146 0z" fill="#8033FD"/><path d="M94.56 27.856c3.594 0 6.799-1.41 9.106-3.684a12.535 12.535 0 003.743-8.961c0-3.499-1.421-6.672-3.743-8.96-2.308-2.276-5.513-3.685-9.105-3.685-1.65 0-3.285.327-4.809.963a12.54 12.54 0 00-4.074 2.744l.002.003a12.615 12.615 0 00-2.729 4.097 12.676 12.676 0 00-.958 4.838c0 3.503 1.452 6.585 3.677 8.829l.006.005c2.364 2.376 5.593 3.811 8.885 3.811zm10.89-1.86c-2.771 2.734-6.606 4.428-10.89 4.428-3.968 0-7.851-1.72-10.682-4.568l-.006-.006c-2.681-2.7-4.43-6.41-4.43-10.638 0-4.191 1.698-7.997 4.435-10.75h.005A15.07 15.07 0 0188.78 1.16 14.993 14.993 0 0194.561 0c4.283 0 8.118 1.694 10.889 4.427a15.088 15.088 0 014.511 10.784c0 4.207-1.712 8.027-4.511 10.785z" fill="#8033FD"/></svg>