<svg width="81" height="81" viewBox="0 0 81 81" fill="none" xmlns="http://www.w3.org/2000/svg">
<g clip-path="url(#clip0)">
<path d="M40.4996 25.0685C31.9894 25.0685 25.0662 31.9917 25.0662 40.5013C25.0662 49.0115 31.9894 55.9348 40.4996 55.9348C49.0092 55.9348 55.9325 49.0115 55.9325 40.5013C55.9325 31.9917 49.0092 25.0685 40.4996 25.0685ZM49.6624 37.595L38.6061 48.6513C38.142 49.1154 37.5333 49.3477 36.9252 49.3477C36.3171 49.3477 35.709 49.116 35.2449 48.6513L31.0198 44.4261C30.0916 43.4985 30.0916 41.9937 31.0198 41.0655C31.9474 40.1373 33.4522 40.1373 34.3804 41.0655L36.9252 43.6104L46.3018 34.2344C47.2294 33.3062 48.7342 33.3062 49.6624 34.2344C50.5906 35.162 50.5906 36.6667 49.6624 37.595Z" fill="#8033FD"/>
<path d="M74.9073 21.9772L74.9049 21.9142C74.8697 21.1362 74.8462 20.313 74.832 19.3972C74.7658 14.931 71.2155 11.2367 66.7488 10.9871C57.4358 10.4674 50.2314 7.43061 44.0757 1.43065L44.0232 1.3806C42.0154 -0.460362 38.9867 -0.460362 36.9783 1.3806L36.9257 1.43065C30.77 7.43061 23.5656 10.4674 14.2527 10.9877C9.78655 11.2367 6.23564 14.931 6.16952 19.3978C6.15592 20.3074 6.13182 21.1306 6.0966 21.9142L6.09289 22.0607C5.91182 31.5571 5.68688 43.376 9.64071 54.1035C11.8148 60.0027 15.1074 65.1307 19.4264 69.346C24.3455 74.1464 30.7886 77.9575 38.5763 80.6729C38.8297 80.7613 39.093 80.8329 39.3612 80.8867C39.7394 80.9621 40.1201 80.9998 40.5007 80.9998C40.8814 80.9998 41.2627 80.9621 41.6403 80.8867C41.9085 80.8329 42.1736 80.7606 42.4282 80.6717C50.2067 77.9513 56.643 74.1384 61.5578 69.3385C65.875 65.1221 69.1676 59.9928 71.3435 54.0924C75.3121 43.3327 75.0878 31.4916 74.9073 21.9772ZM40.4995 60.6874C29.3685 60.6874 20.3132 51.6322 20.3132 40.5012C20.3132 29.3701 29.3685 20.3149 40.4995 20.3149C51.6299 20.3149 60.6858 29.3701 60.6858 40.5012C60.6858 51.6322 51.6299 60.6874 40.4995 60.6874Z" fill="#8033FD"/>
</g>
<defs>
<clipPath id="clip0">
<rect width="81" height="81" fill="white"/>
</clipPath>
</defs>
</svg>
