<svg width="194" height="81" viewBox="0 0 194 81" fill="none" xmlns="http://www.w3.org/2000/svg">
<path fill-rule="evenodd" clip-rule="evenodd" d="M2.46471 74.0516C1.8998 76.0433 2.74716 76.0433 3.31206 76.0433C3.87697 76.0433 4.44187 75.4726 4.44187 74.9053C4.44187 74.3381 3.87697 73.7697 3.59452 73.4843L2.46471 72.6317C1.3349 71.7802 0.769996 70.9276 1.05245 69.5066C1.61735 67.8003 3.02961 66.9477 5.28923 66.9477C7.54884 66.9477 8.3973 68.0856 7.83129 70.3581H5.28923C5.85413 69.2224 5.57168 68.654 4.72432 68.654C4.15942 68.654 3.59452 68.9371 3.59452 69.5066C3.31206 70.3581 3.87697 70.6423 4.15942 70.9276L5.85413 72.0633C6.41903 72.3486 6.98394 73.4843 6.98394 74.0527C6.70149 76.0444 5.85413 77.7485 2.74606 77.7485C1.3338 77.7485 -0.643363 77.1801 0.203993 74.0527H2.46471V74.0516ZM14.0474 77.4643C14.0474 77.179 14.0474 76.8959 14.3299 76.3264C13.4825 77.179 12.6352 77.7474 11.7878 77.7474C10.0931 77.7474 9.24575 76.8959 9.81066 74.6223C10.3756 72.3486 12.0703 71.7802 14.0485 70.9265C15.1783 70.6412 15.4608 70.0739 15.4608 69.2202C15.4608 68.9349 15.1783 68.6518 14.6134 68.6518C13.4836 68.6518 13.2012 69.2202 12.9187 70.3559H10.6569C11.2229 68.3665 12.0692 66.9455 14.8948 66.9455C18.2842 66.9455 18.0029 68.6518 17.7193 70.0728L16.5895 76.0422C16.3071 76.6106 16.3071 76.8948 16.3071 77.4632H14.0474V77.4643ZM14.8948 72.0622C14.3299 72.6306 13.4825 72.9148 12.9176 73.4832C12.3527 73.7685 12.3527 74.3358 12.0703 74.6211C12.0703 75.4726 12.0703 76.0422 12.9176 76.0422C14.3299 76.0422 14.6123 74.0505 14.6123 73.2001L14.8948 72.0622ZM21.1087 68.9349L21.3912 67.2308H22.2385L22.521 66.0929C23.0859 64.3888 23.9333 63.8204 25.6291 63.8204H26.4764L25.9115 65.8098L25.6291 65.5245C25.0631 65.5245 25.0631 65.8098 25.0631 66.0929L24.7806 67.2308H25.628L25.3455 68.9349H24.2157L22.521 77.4643H20.2603L21.955 68.9349H21.1087ZM27.6073 70.6412C28.1722 68.3665 29.5856 66.9455 31.8441 66.9455C35.2346 66.9455 35.2346 68.6518 34.6697 71.4938L34.3873 72.9148H29.5845L29.302 74.3358C29.0196 75.7568 29.5845 76.0422 30.1494 76.0422C30.9967 76.0422 31.5617 75.1896 31.8441 74.0505H34.1048C33.5399 76.3253 32.4101 77.7463 30.1494 77.7463C27.3249 77.7463 26.4764 76.6106 27.0424 73.4832L27.6073 70.6412ZM32.4101 70.9265L32.6926 70.0739C32.6926 69.2213 32.6926 68.6529 31.5628 68.6529C30.4329 68.6529 30.4329 69.7886 30.1505 70.6423V70.9276H32.4101V70.9265ZM40.3199 77.4643C38.9065 77.7474 36.9304 77.7474 37.4942 76.0433L38.9065 68.9349H37.7767L38.3416 67.2308H39.189L39.7539 64.3888H42.2959L41.4486 67.2308H42.5784L42.2959 68.9349H41.1661L39.7539 75.1896C39.7539 75.758 40.6012 75.7579 40.8837 75.7579L40.3199 77.4643ZM47.0998 67.2308L46.8174 72.6306V75.4726C47.0998 74.6211 47.3823 73.7685 47.6647 72.6306L49.9243 67.2308H52.185L47.6647 77.7474C46.5349 80.0221 46.2514 81.4431 42.8619 80.8747L43.4268 79.1684C43.7093 79.1684 44.8391 79.4537 44.8391 78.6V77.4643L44.5566 67.2308H47.0998ZM66.5923 73.4832C66.5923 74.3358 66.5923 74.9042 66.3098 75.7579C66.5923 75.1895 66.8747 73.7685 67.1572 73.4832L69.1344 67.2308H71.6764L67.4396 77.4643H64.8965V73.4832C64.8965 72.6306 64.8965 71.7791 65.1789 70.6412L64.3316 73.2001L62.6369 77.4632H60.0948V67.2297H62.6369L62.072 73.4821C62.072 73.7674 61.7895 75.1884 61.7895 75.7569C62.072 74.9042 62.3555 74.3358 62.6369 73.4821L64.8965 67.2297H66.8736L66.5923 73.4832ZM77.0452 77.4643C76.7628 77.179 77.0452 76.8959 77.0452 76.3264C76.1979 77.179 75.3505 77.7474 74.7845 77.7474C72.8073 77.7474 72.2424 76.8959 72.5249 74.6223C73.0898 72.3475 74.7845 71.7802 76.7628 70.9265C77.8926 70.6412 78.4575 70.0739 78.4575 69.2202C78.4575 68.9349 77.8926 68.6518 77.3277 68.6518C76.1979 68.6518 75.9154 69.2202 75.9154 70.3559H73.6547C73.9371 68.3665 74.7845 66.9455 77.8926 66.9455C81.0006 66.9455 81.0006 68.6518 80.7171 70.0728L79.3048 76.0422V77.4632H77.0452V77.4643ZM77.8926 72.0622C77.0452 72.6306 76.4803 72.9148 75.6329 73.4832C75.3505 73.7685 75.068 74.3358 75.068 74.6211C74.7856 75.4726 75.068 76.0422 75.9154 76.0422C77.3277 76.0422 77.3277 74.0505 77.6101 73.2001L77.8926 72.0622ZM86.9332 68.9349C87.2157 68.3665 87.7806 67.7992 88.063 67.5139C88.9104 66.9455 89.4764 66.9455 89.7577 66.9455L89.1928 69.7875C87.7806 69.7875 86.6508 70.0728 86.3683 71.4938L85.2385 77.4632H82.6964L84.9572 67.2297H87.2179L86.9332 68.9349ZM94.5605 68.3665C95.4079 67.2308 96.5377 66.9455 97.1026 66.9455C98.2335 66.9455 99.3622 67.7981 98.7973 69.5044L97.1026 77.4632H94.843L96.2552 70.6401C96.5377 69.7875 96.5377 68.9338 95.6903 68.9338C94.843 68.9338 94.2781 69.7864 93.9956 70.9254L92.5834 77.4632H90.3226L92.5834 67.2297H94.843L94.5605 68.3665ZM101.058 77.4643L103.319 67.2308H105.579L103.319 77.4643H101.058ZM103.319 66.0918L103.884 63.8193H106.144L105.861 66.0918H103.319ZM111.51 68.3665C112.357 67.2308 113.489 66.9455 114.053 66.9455C115.182 66.9455 116.314 67.7981 115.749 69.5044L114.053 77.4632H111.792L113.205 70.6401C113.488 69.7875 113.488 68.9338 112.64 68.9338C111.791 68.9338 111.227 69.7864 110.944 70.9254L109.532 77.4632H107.271L109.532 67.2297H111.792L111.51 68.3665ZM119.703 78.6C119.703 78.8853 119.987 78.8853 119.987 79.1684H120.552C121.68 79.1684 121.964 78.3169 122.245 77.7474L122.529 76.3264C121.681 77.4643 121.117 77.7474 119.988 77.7474C118.008 77.7474 118.008 76.0433 118.292 74.3369L119.139 70.6412C119.704 67.7992 120.833 66.9455 122.245 66.9455C123.376 66.9455 123.941 67.5139 123.941 68.3665L124.225 67.2308H126.485L124.506 77.179C124.225 79.1684 123.094 80.8747 119.988 80.8747C118.292 80.8747 117.163 80.3063 117.445 78.6H119.703ZM122.811 68.6518C121.68 68.6518 121.68 69.7875 121.399 70.6412L120.552 74.0516C120.552 75.1896 120.552 76.0433 121.399 76.0433C121.964 76.0433 122.528 75.1907 122.811 74.0516L123.376 70.9265C123.657 70.3559 123.94 68.6518 122.811 68.6518ZM136.652 74.0516C136.088 76.0433 136.936 76.0433 137.22 76.0433C138.066 76.0433 138.632 75.4726 138.632 74.9053C138.632 74.3381 138.065 73.7697 137.784 73.4843L136.654 72.6317C135.525 71.7802 134.96 70.9276 135.241 69.5066C135.525 67.8003 137.221 66.9477 139.48 66.9477C141.739 66.9477 142.305 68.0856 142.021 70.3581H139.48C139.762 69.2224 139.48 68.654 138.913 68.654C138.348 68.654 137.784 68.9371 137.501 69.5066C137.501 70.3581 137.784 70.6423 138.348 70.9276L140.044 72.0633C140.325 72.3486 141.173 73.4843 141.173 74.0527C140.891 76.0444 140.044 77.7485 136.936 77.7485C135.524 77.7485 133.263 77.1801 134.395 74.0527H136.652V74.0516ZM147.389 67.2308L147.105 72.6306C147.105 73.4832 147.105 74.6223 146.822 75.4726H147.105C147.105 74.6211 147.67 73.7685 147.953 72.6306L149.93 67.2308H152.473L147.669 77.7474C146.822 80.0221 146.257 81.4431 143.151 80.8747L143.716 79.1684C143.997 79.1684 144.845 79.4537 145.128 78.6V77.4643L144.845 67.2308H147.389ZM155.58 74.0516C155.015 76.0433 155.864 76.0433 156.145 76.0433C156.992 76.0433 157.559 75.4726 157.559 74.9053C157.559 74.3381 156.992 73.7697 156.712 73.4843L155.581 72.6317C154.452 71.7802 153.888 70.9276 154.169 69.5066C154.452 67.8003 156.146 66.9477 158.406 66.9477C160.665 66.9477 161.23 68.0856 160.949 70.3581H158.406C158.689 69.2224 158.406 68.654 157.841 68.654C157.276 68.654 156.712 68.9371 156.428 69.5066C156.428 70.3581 156.712 70.6423 157.276 70.9276L158.972 72.0633C159.253 72.3486 160.1 73.4843 160.1 74.0527C159.817 76.0444 158.972 77.7485 155.864 77.7485C154.451 77.7485 152.191 77.1801 153.32 74.0527H155.58V74.0516ZM166.034 77.4643C164.622 77.7474 162.642 77.7474 162.926 76.0433L164.622 68.9349H163.491L163.774 67.2308H164.903L165.468 64.3888H167.729L167.164 67.2308H168.295L167.728 68.9349H166.881L165.467 75.1896C165.467 75.758 166.034 75.7579 166.314 75.7579L166.034 77.4643ZM170.272 70.6412C170.837 68.3665 172.249 66.9455 174.509 66.9455C177.898 66.9455 177.898 68.6518 177.333 71.4938L177.05 72.9148H172.248L171.967 74.3358C171.683 75.7568 171.967 76.0422 172.813 76.0422C173.66 76.0422 173.944 75.1896 174.225 74.0505H176.768C176.203 76.3253 175.073 77.7463 172.532 77.7463C169.988 77.7463 169.14 76.6106 169.707 73.4832L170.272 70.6412ZM175.074 70.9265V70.0739C175.357 69.2213 175.074 68.6529 174.226 68.6529C173.098 68.6529 172.814 69.7886 172.814 70.6423L172.533 70.9276H175.074V70.9265ZM183.832 68.3665C184.679 67.2308 185.809 66.9455 186.375 66.9455C187.221 66.9455 188.352 67.2308 188.352 68.3665C188.917 67.5139 189.764 66.9455 190.893 66.9455C192.87 66.9455 193.154 68.0834 193.154 69.2202L191.177 77.4643H188.916L190.328 70.6412C190.612 69.5055 190.612 68.6518 189.763 68.6518C188.632 68.9349 188.351 69.5044 188.068 70.6412L186.655 77.4643H184.395L185.807 70.3559C186.09 69.5044 186.09 68.6518 184.959 68.6518C183.831 68.9349 183.547 69.5044 183.266 70.6412L181.854 77.4643H179.593L181.854 67.2308H184.114L183.832 68.3665ZM89.1928 28.5717L94.5605 4.69434L99.9293 28.2875L94.5605 28.8559L89.1928 28.5717ZM60.9422 27.7191V36.5315C58.1176 36.2473 51.3377 35.1105 46.5349 35.1105C42.2981 35.1105 41.1672 35.6789 41.1672 36.8157C41.1672 37.6683 41.7321 38.2367 44.8391 38.2367H49.3594C58.9639 38.2367 62.072 41.9325 62.072 48.7533C62.072 59.2721 51.619 60.6931 42.297 60.6931C36.082 60.6931 31.2792 60.4078 25.6291 59.2721V49.607C29.0185 50.4596 33.8213 50.7449 37.7767 50.7449C42.8619 50.7449 45.404 50.7449 45.404 49.3239C45.404 47.9029 43.9917 47.9029 41.4486 47.9029H36.9282C30.7132 47.9029 24.4982 45.9113 24.4982 38.5209C24.4982 28.0044 34.3862 26.2981 44.2731 26.2981C49.077 26.2981 56.4218 26.8665 60.9422 27.7191ZM162.926 27.7191V36.5315C160.101 36.2473 153.32 35.1105 148.519 35.1105C144.282 35.1105 143.152 35.6789 143.152 36.8157C143.152 37.6683 143.717 38.2367 146.823 38.2367H151.343C160.949 38.2367 164.055 41.9325 164.055 48.7533C164.055 59.2721 153.603 60.6931 144.281 60.6931C138.065 60.6931 133.263 60.4078 127.613 59.2721V49.607C131.002 50.4596 135.806 50.7449 139.761 50.7449C144.846 50.7449 147.389 50.7449 147.389 49.3239C147.389 47.9029 145.977 47.9029 143.432 47.9029H138.912C132.698 47.9029 126.483 45.9113 126.483 38.5209C126.483 28.0044 136.37 26.2981 146.257 26.2981C151.06 26.2981 158.124 26.8665 162.926 27.7191Z" fill="#8033FD"/>
<path fill-rule="evenodd" clip-rule="evenodd" d="M100.774 31.4148L103.599 44.4902H103.882L107.555 27.1506H123.656L114.617 59.5551H98.7972L94.5605 48.7533V47.3323L90.605 59.5551H74.7844L65.7449 27.1506H82.4128L85.8022 44.4902L88.6279 31.4148C95.4078 34.2568 100.774 31.4148 100.774 31.4148Z" fill="#8033FD"/>
<path d="M94.5605 27.8562C98.1543 27.8562 101.359 26.4462 103.666 24.1715C105.988 21.8824 107.409 18.7097 107.409 15.2109C107.409 11.712 105.988 8.53931 103.666 6.25022C101.358 3.9755 98.1532 2.56555 94.5605 2.56555C92.9103 2.56544 91.2763 2.89289 89.7522 3.52915C88.228 4.16541 86.8435 5.09798 85.6781 6.27344L85.6803 6.27565C84.5113 7.44743 83.5839 8.83995 82.9511 10.3733C82.3183 11.9066 81.9927 13.5506 81.993 15.2109C81.993 18.7142 83.4448 21.7962 85.6704 24.0399L85.6759 24.0454C88.0399 26.4208 91.2688 27.8562 94.5605 27.8562ZM105.45 25.9961C102.679 28.7298 98.8445 30.4239 94.5605 30.4239C90.5918 30.4239 86.709 28.7032 83.8778 25.8557L83.8723 25.8502C81.1907 23.1508 79.4421 19.4396 79.4421 15.212C79.4421 11.0208 81.1401 7.21451 83.8767 4.46207H83.8822C85.2827 3.04776 86.9468 1.92556 88.7792 1.15985C90.6117 0.394137 92.5763 -1.37159e-05 94.5605 3.57971e-10C98.8445 3.57971e-10 102.679 1.69415 105.45 4.42668C108.249 7.18576 109.961 11.0042 109.961 15.2109C109.961 19.4175 108.249 23.2382 105.45 25.9961Z" fill="#8033FD"/>
</svg>
