<svg width="81" height="81" viewBox="0 0 81 81" fill="none" xmlns="http://www.w3.org/2000/svg">
<path d="M33.3809 81V73.7227C28.1458 73.7227 23.8887 69.4656 23.8887 64.2305C23.8887 58.9954 28.1458 54.7383 33.3809 54.7383V47.6191H20.1158L21.2445 44.4489C21.4253 43.946 21.5156 43.4154 21.5156 42.873C21.5156 40.2567 19.3859 38.127 16.7695 38.127C14.1532 38.127 12.0234 40.2567 12.0234 42.873C12.0234 43.4154 12.1138 43.946 12.2946 44.4489L13.4232 47.6191H0C1.17751 65.3524 15.6476 79.8225 33.3809 81Z" fill="#8033FD"/>
<path d="M16.7695 33.3809C22.0046 33.3809 26.2617 37.638 26.2617 42.8731H33.3809V29.608L36.5511 30.7367C39.4734 31.7772 42.8707 29.418 42.873 26.2617C42.8707 23.103 39.4756 20.7254 36.5511 21.7868L33.3809 22.9154V9.77063C15.6476 10.9481 1.17751 25.1398 0 42.8731H7.27734C7.27734 37.638 11.5344 33.3809 16.7695 33.3809Z" fill="#8033FD"/>
<path d="M71.2294 47.6191H64.2305C64.2305 52.8542 59.9734 57.1113 54.7383 57.1113C49.5032 57.1113 45.2461 52.8542 45.2461 47.6191H38.127V60.8842L34.9567 59.7555C32.0228 58.7011 28.6324 61.0718 28.6348 64.2305C28.6324 67.3892 32.0252 69.7598 34.9567 68.7054L38.127 67.5768V81C55.8603 79.8225 70.0519 65.3524 71.2294 47.6191Z" fill="#8033FD"/>
<path d="M71.3496 19.1426V9.65039H61.8574C61.8574 4.41529 57.6003 0 52.3652 0C47.1301 0 42.873 4.41529 42.873 9.65039H38.127V16.7695C43.3621 16.7695 47.6191 21.0266 47.6191 26.2617C47.6191 31.4968 43.3621 35.7539 38.127 35.7539V42.873H51.392L50.2633 46.0433C50.0825 46.5462 49.9922 47.0768 49.9922 47.6191C49.9922 50.2355 52.1219 52.3652 54.7383 52.3652C57.3546 52.3652 59.4844 50.2355 59.4844 47.6191C59.4844 47.0768 59.394 46.5462 59.2132 46.0433L58.0846 42.873H71.3496V38.127C76.5847 38.127 81 33.8699 81 28.6348C81 23.3997 76.5847 19.1426 71.3496 19.1426Z" fill="#8033FD"/>
</svg>
