<svg width="81" height="81" viewBox="0 0 81 81" fill="none" xmlns="http://www.w3.org/2000/svg">
<g clip-path="url(#clip0)">
<path d="M79.7313 38.1057C79.6496 38.0509 79.5654 38.0004 79.4784 37.9543L73.7304 34.859L41.854 51.7359C41.0071 52.1844 39.9932 52.1844 39.1463 51.7359L7.27004 34.859L1.52184 37.9543C0.124799 38.6959 -0.406764 40.4296 0.334813 41.8266C0.380918 41.9134 0.43143 41.9978 0.48618 42.0795L40.5001 63.2639L80.5141 42.0795C81.3953 40.766 81.045 38.9869 79.7313 38.1057Z" fill="#8033FD"/>
<path d="M80.6501 56.4831C80.3821 55.9866 79.9748 55.5793 79.4785 55.3115L73.7305 52.2162L41.8541 69.0931C41.0072 69.5416 39.9932 69.5416 39.1464 69.0931L7.26998 52.2162L1.52178 55.3115C0.115756 56.0704 -0.408687 57.8252 0.350179 59.2312C0.618163 59.7277 1.02548 60.135 1.52178 60.4029L39.129 80.6529C39.9849 81.1138 41.0154 81.1138 41.8713 80.6529L79.4785 60.4029C80.8844 59.644 81.409 57.8891 80.6501 56.4831Z" fill="#8033FD"/>
<path d="M79.7313 20.7485C79.6496 20.6938 79.5654 20.6433 79.4784 20.5972L41.8714 0.347124C41.0154 -0.113755 39.985 -0.113755 39.129 0.347124L1.52184 20.5972C0.124799 21.3387 -0.406764 23.0724 0.334813 24.4695C0.380918 24.5563 0.43143 24.6407 0.48618 24.7224L40.5001 45.9067L80.5141 24.7224C81.3953 23.4089 81.045 21.6298 79.7313 20.7485Z" fill="#8033FD"/>
</g>
<defs>
<clipPath id="clip0">
<rect width="81" height="81" fill="white"/>
</clipPath>
</defs>
</svg>
