<svg width="84" height="84" viewBox="0 0 84 84" fill="none" xmlns="http://www.w3.org/2000/svg">
<path d="M61.3644 39.662C60.2699 30.7321 53.2221 23.702 44.2894 22.6302C43.5203 22.5424 42.7469 22.4985 41.9727 22.4983C34.0783 22.5104 26.9702 27.2814 23.9682 34.5826C20.9661 41.8839 22.6627 50.2751 28.2654 55.8366C31.2448 58.6898 32.9511 62.6217 32.9998 66.7468V68.9998H50.9997V66.7351C51.0134 62.6882 52.6597 58.8181 55.5658 56.0015C59.9551 51.7665 62.102 45.7171 61.3642 39.6627V39.662H61.3644Z" fill="#8033FD"/>
<path d="M41.9999 84C43.9063 83.9979 45.6052 82.7966 46.2429 81H37.7571C38.3946 82.7966 40.0935 83.9979 41.9999 84Z" fill="#8033FD"/>
<path d="M34.5 76.5001C34.5011 77.3281 35.172 77.9989 36 78.0001H48C48.8281 77.9989 49.4989 77.3281 49.5001 76.5001V72H34.5V76.5001Z" fill="#8033FD"/>
<path d="M42 13.5C43.6569 13.5 45.0001 12.1569 45.0001 10.5V3.00005C45.0001 1.34318 43.6569 0 42 0C40.3432 0 39 1.34318 39 3.00005V10.5C39 12.1569 40.3432 13.5 42 13.5Z" fill="#8033FD"/>
<path d="M16.6817 20.9245C17.8689 22.0584 19.7375 22.0584 20.9247 20.9245C21.4874 20.362 21.8036 19.5987 21.8036 18.803C21.8036 18.0073 21.4874 17.2441 20.9247 16.6815L15.621 11.3789C15.0586 10.8161 14.2956 10.5 13.5 10.5C12.7045 10.5 11.9415 10.8161 11.3789 11.3789C10.8161 11.9413 10.5 12.7043 10.5 13.5C10.5 14.2958 10.8161 15.0586 11.3789 15.6212L16.6817 20.9245Z" fill="#8033FD"/>
<path d="M13.5 42C13.5 40.3432 12.1569 39 10.5 39H3.00005C1.34384 39.0016 0.00164062 40.3438 0 42C0.00164062 43.6562 1.34384 44.9984 3.00005 45.0001H10.5C12.1569 45.0001 13.5 43.6569 13.5 42Z" fill="#8033FD"/>
<path d="M19.5819 62.2943C18.5451 62.0172 17.4393 62.315 16.6818 63.0754L11.3791 68.3789C10.8164 68.9413 10.5002 69.7044 10.5002 70.5001C10.5002 71.2958 10.8164 72.0587 11.3791 72.6212C12.566 73.7551 14.4345 73.7551 15.6213 72.6212L20.9248 67.3186C21.685 66.5611 21.983 65.4553 21.7059 64.4184C21.4288 63.3816 20.6188 62.5714 19.5819 62.2943Z" fill="#8033FD"/>
<path d="M67.3184 63.0755C66.5609 62.3152 65.4551 62.0173 64.4182 62.2944C63.3813 62.5715 62.5715 63.3813 62.2944 64.4182C62.0173 65.4551 62.3151 66.5609 63.0755 67.3183L68.379 72.621C69.5659 73.7548 71.4344 73.7548 72.6212 72.621C73.1839 72.0586 73.5001 71.2955 73.5001 70.4998C73.5001 69.7041 73.1839 68.9412 72.6212 68.3787L67.3184 63.0755Z" fill="#8033FD"/>
<path d="M81 39H73.5C71.8432 39 70.5 40.3432 70.5 42C70.5 43.6569 71.8432 45.0001 73.5 45.0001H81C82.6569 45.0001 84 43.6569 84 42C84 40.3432 82.6569 39 81 39Z" fill="#8033FD"/>
<path d="M67.3183 20.9246L72.621 15.6211C73.3788 14.8633 73.6748 13.7588 73.3973 12.7236C73.1199 11.6884 72.3114 10.8799 71.2762 10.6024C70.2409 10.325 69.1365 10.621 68.3787 11.3788L63.0752 16.6814C62.5124 17.244 62.1963 18.0072 62.1963 18.8029C62.1963 19.5986 62.5124 20.3619 63.0752 20.9244C64.2625 22.0584 66.1313 22.0584 67.3183 20.9246Z" fill="#8033FD"/>
</svg>
