<svg width="101" height="84" viewBox="0 0 101 84" fill="none" xmlns="http://www.w3.org/2000/svg">
<path fill-rule="evenodd" clip-rule="evenodd" d="M10.0331 14.3317C4.64636 14.3317 0.279541 18.6985 0.279541 24.0853C0.279541 29.472 4.64635 33.8388 10.0331 33.8388H62.981C68.3677 33.8388 72.7345 29.472 72.7345 24.0853C72.7345 18.6985 68.3677 14.3317 62.981 14.3317H10.0331ZM10.2322 28.6635C12.8706 28.6635 15.0094 26.5247 15.0094 23.8863C15.0094 21.2479 12.8706 19.109 10.2322 19.109C7.59377 19.109 5.45492 21.2479 5.45492 23.8863C5.45492 26.5247 7.59377 28.6635 10.2322 28.6635ZM22.1754 23.8862C22.1754 25.2055 21.106 26.2749 19.7868 26.2749C18.4676 26.2749 17.3981 25.2055 17.3981 23.8862C17.3981 22.567 18.4676 21.4976 19.7868 21.4976C21.106 21.4976 22.1754 22.567 22.1754 23.8862ZM27.3507 26.2749C28.6699 26.2749 29.7393 25.2055 29.7393 23.8862C29.7393 22.567 28.6699 21.4976 27.3507 21.4976C26.0315 21.4976 24.9621 22.567 24.9621 23.8862C24.9621 25.2055 26.0315 26.2749 27.3507 26.2749Z" fill="#8033FD"/>
<path fill-rule="evenodd" clip-rule="evenodd" d="M10.0331 39.4123C4.64636 39.4123 0.279541 43.7791 0.279541 49.1658C0.279541 54.5526 4.64634 58.9194 10.0331 58.9194H71.7393C77.126 58.9194 81.4928 54.5526 81.4928 49.1658C81.4928 43.7791 77.126 39.4123 71.7393 39.4123H10.0331ZM10.2322 53.7441C12.8706 53.7441 15.0094 51.6052 15.0094 48.9668C15.0094 46.3284 12.8706 44.1896 10.2322 44.1896C7.59377 44.1896 5.45492 46.3284 5.45492 48.9668C5.45492 51.6052 7.59377 53.7441 10.2322 53.7441ZM22.1754 48.9668C22.1754 50.286 21.106 51.3554 19.7868 51.3554C18.4676 51.3554 17.3981 50.286 17.3981 48.9668C17.3981 47.6476 18.4676 46.5782 19.7868 46.5782C21.106 46.5782 22.1754 47.6476 22.1754 48.9668ZM27.3507 51.3554C28.6699 51.3554 29.7393 50.286 29.7393 48.9668C29.7393 47.6476 28.6699 46.5782 27.3507 46.5782C26.0315 46.5782 24.9621 47.6476 24.9621 48.9668C24.9621 50.286 26.0315 51.3554 27.3507 51.3554Z" fill="#8033FD"/>
<rect x="36.5073" y="56.5308" width="6.76777" height="14.3318" fill="#8033FD"/>
<circle cx="40.0902" cy="76.8342" r="7.16588" fill="#8033FD"/>
<path d="M73.6952 31.2152L74.086 31.4444L74.4768 31.2152C74.7432 31.0588 74.8963 30.7914 74.8963 30.5047C74.8963 30.0358 74.5176 29.6753 74.086 29.6753C73.6543 29.6753 73.2757 30.0358 73.2757 30.5047C73.2757 30.7914 73.4288 31.0588 73.6952 31.2152ZM62.1006 18.5807V16.0237C62.1006 9.39367 67.4608 3.981 74.086 3.981C80.7112 3.981 86.0714 9.39367 86.0714 16.0237V18.5807C88.8139 19.1359 90.8698 21.5735 90.8698 24.4709V41.3655C90.8698 44.6687 88.1976 47.3744 84.8824 47.3744H63.2896C59.9744 47.3744 57.3021 44.6687 57.3021 41.3655V24.4709C57.3021 21.5735 59.3581 19.1359 62.1006 18.5807ZM78.0952 16.0237C78.0952 13.78 76.2818 11.9763 74.086 11.9763C71.8901 11.9763 70.0767 13.78 70.0767 16.0237V18.462H78.0952V16.0237Z" fill="#8033FD" stroke="white" stroke-width="4.77725"/>
<path d="M73.6952 31.2152L74.086 31.4444L74.4768 31.2152C74.7432 31.0588 74.8963 30.7914 74.8963 30.5047C74.8963 30.0358 74.5176 29.6753 74.086 29.6753C73.6543 29.6753 73.2757 30.0358 73.2757 30.5047C73.2757 30.7914 73.4288 31.0588 73.6952 31.2152ZM62.1006 18.5807V16.0237C62.1006 9.39367 67.4608 3.981 74.086 3.981C80.7112 3.981 86.0714 9.39367 86.0714 16.0237V18.5807C88.8139 19.1359 90.8698 21.5735 90.8698 24.4709V41.3655C90.8698 44.6687 88.1976 47.3744 84.8824 47.3744H63.2896C59.9744 47.3744 57.3021 44.6687 57.3021 41.3655V24.4709C57.3021 21.5735 59.3581 19.1359 62.1006 18.5807ZM78.0952 16.0237C78.0952 13.78 76.2818 11.9763 74.086 11.9763C71.8901 11.9763 70.0767 13.78 70.0767 16.0237V18.462H78.0952V16.0237Z" stroke="white" stroke-width="4.77725"/>
<path fill-rule="evenodd" clip-rule="evenodd" d="M51.5555 80.019C51.8665 78.9448 52.0332 77.8094 52.0332 76.635C52.0332 75.6048 51.9049 74.6045 51.6634 73.6493H73.9288C75.6878 73.6493 77.1136 75.0752 77.1136 76.8341C77.1136 78.5931 75.6878 80.019 73.9288 80.019H51.5555ZM28.2267 80.019H6.64919C4.89025 80.019 3.46436 78.5931 3.46436 76.8341C3.46436 75.0752 4.89025 73.6493 6.64919 73.6493H28.1187C27.8772 74.6045 27.7489 75.6048 27.7489 76.635C27.7489 77.8094 27.9156 78.9448 28.2267 80.019Z" fill="#8033FD"/>
</svg>
