<svg width="1439" height="719" viewBox="0 0 1439 719" fill="none" xmlns="http://www.w3.org/2000/svg">
<path d="M1438 359.5C1438 458.19 1357.91 547.807 1227.82 612.81C1097.78 677.784 918.063 718 719.5 718C520.937 718 341.221 677.784 211.184 612.81C81.0858 547.807 1 458.19 1 359.5C1 260.81 81.0858 171.193 211.184 106.19C341.221 41.2159 520.937 1 719.5 1C918.063 1 1097.78 41.2159 1227.82 106.19C1357.91 171.193 1438 260.81 1438 359.5Z" stroke="#E6E6E6" stroke-opacity="0.5" stroke-width="2"/>
<path d="M1379 359.5C1379 450.183 1305.52 532.549 1186.1 592.305C1066.74 652.03 901.77 689 719.5 689C537.23 689 372.264 652.03 252.903 592.305C133.483 532.549 60 450.183 60 359.5C60 268.817 133.483 186.451 252.903 126.696C372.264 66.9699 537.23 30 719.5 30C901.77 30 1066.74 66.9699 1186.1 126.696C1305.52 186.451 1379 268.817 1379 359.5Z" stroke="#E6E6E6" stroke-opacity="0.5" stroke-width="2"/>
<path d="M1320 359.5C1320 439.674 1253.14 512.544 1144.39 565.429C1035.7 618.282 885.482 651 719.5 651C553.518 651 403.299 618.282 294.613 565.429C185.858 512.544 119 439.674 119 359.5C119 279.326 185.858 206.456 294.613 153.571C403.299 100.718 553.518 68 719.5 68C885.482 68 1035.7 100.718 1144.39 153.571C1253.14 206.456 1320 279.326 1320 359.5Z" stroke="#E6E6E6" stroke-opacity="0.5" stroke-width="2"/>
</svg>
