<svg width="1439" height="733" viewBox="0 0 1439 733" fill="none" xmlns="http://www.w3.org/2000/svg">
<path d="M1438 373.5C1438 472.19 1357.91 561.807 1227.82 626.81C1097.78 691.784 918.063 732 719.5 732C520.937 732 341.221 691.784 211.184 626.81C81.0858 561.807 1 472.19 1 373.5C1 274.81 81.0858 185.193 211.184 120.19C341.221 55.2159 520.937 15 719.5 15C918.063 15 1097.78 55.2159 1227.82 120.19C1357.91 185.193 1438 274.81 1438 373.5Z" stroke="#E7E7E7" stroke-width="2"/>
<path d="M1379 373.5C1379 464.183 1305.52 546.549 1186.1 606.305C1066.74 666.03 901.77 703 719.5 703C537.23 703 372.264 666.03 252.903 606.305C133.483 546.549 60 464.183 60 373.5C60 282.817 133.483 200.451 252.903 140.696C372.264 80.9699 537.23 44 719.5 44C901.77 44 1066.74 80.9699 1186.1 140.696C1305.52 200.451 1379 282.817 1379 373.5Z" stroke="#E7E7E7" stroke-width="2"/>
<path d="M1320 373.5C1320 453.674 1253.14 526.544 1144.39 579.429C1035.7 632.282 885.482 665 719.5 665C553.518 665 403.299 632.282 294.613 579.429C185.858 526.544 119 453.674 119 373.5C119 293.326 185.858 220.456 294.613 167.571C403.299 114.718 553.518 82 719.5 82C885.482 82 1035.7 114.718 1144.39 167.571C1253.14 220.456 1320 293.326 1320 373.5Z" stroke="#E7E7E7" stroke-width="2"/>
<g filter="url(#filter0_d)">
<path d="M1320.5 574C1325.19 574 1329 570.194 1329 565.5C1329 560.806 1325.19 557 1320.5 557C1315.81 557 1312 560.806 1312 565.5C1312 570.194 1315.81 574 1320.5 574Z" fill="#8033FD"/>
</g>
<path d="M1323.15 568.184C1324.6 566.728 1324.6 564.369 1323.15 562.914C1321.69 561.459 1319.33 561.459 1317.88 562.914C1316.42 564.369 1316.42 566.728 1317.88 568.184C1319.33 569.639 1321.69 569.639 1323.15 568.184Z" fill="white"/>
<g filter="url(#filter1_d)">
<path d="M1232.5 173C1237.19 173 1241 169.194 1241 164.5C1241 159.806 1237.19 156 1232.5 156C1227.81 156 1224 159.806 1224 164.5C1224 169.194 1227.81 173 1232.5 173Z" fill="#8033FD"/>
</g>
<path d="M1235.15 167.183C1236.6 165.728 1236.6 163.369 1235.15 161.914C1233.69 160.459 1231.33 160.459 1229.88 161.914C1228.42 163.369 1228.42 165.728 1229.88 167.183C1231.33 168.639 1233.69 168.639 1235.15 167.183Z" fill="white"/>
<g filter="url(#filter2_d)">
<path d="M157.5 280C162.194 280 166 276.194 166 271.5C166 266.806 162.194 263 157.5 263C152.806 263 149 266.806 149 271.5C149 276.194 152.806 280 157.5 280Z" fill="#8033FD"/>
</g>
<path d="M160.146 274.183C161.601 272.728 161.601 270.369 160.146 268.914C158.691 267.459 156.332 267.459 154.878 268.914C153.423 270.369 153.423 272.728 154.878 274.183C156.332 275.639 158.691 275.639 160.146 274.183Z" fill="white"/>
<g filter="url(#filter3_d)">
<path d="M899.5 31C904.194 31 908 27.1944 908 22.5C908 17.8056 904.194 14 899.5 14C894.806 14 891 17.8056 891 22.5C891 27.1944 894.806 31 899.5 31Z" fill="#8033FD"/>
</g>
<path d="M902.146 25.1834C903.601 23.7282 903.601 21.369 902.146 19.9138C900.691 18.4587 898.332 18.4587 896.878 19.9138C895.423 21.369 895.423 23.7282 896.878 25.1834C898.332 26.6385 900.691 26.6385 902.146 25.1834Z" fill="white"/>
<g filter="url(#filter4_d)">
<path d="M191.5 579C196.194 579 200 575.194 200 570.5C200 565.806 196.194 562 191.5 562C186.806 562 183 565.806 183 570.5C183 575.194 186.806 579 191.5 579Z" fill="#8033FD"/>
</g>
<path d="M194.146 573.184C195.601 571.728 195.601 569.369 194.146 567.914C192.691 566.459 190.332 566.459 188.878 567.914C187.423 569.369 187.423 571.728 188.878 573.184C190.332 574.639 192.691 574.639 194.146 573.184Z" fill="white"/>
<g filter="url(#filter5_d)">
<path d="M1366.5 323C1371.19 323 1375 319.194 1375 314.5C1375 309.806 1371.19 306 1366.5 306C1361.81 306 1358 309.806 1358 314.5C1358 319.194 1361.81 323 1366.5 323Z" fill="#8033FD"/>
</g>
<path d="M1369.15 317.183C1370.6 315.728 1370.6 313.369 1369.15 311.914C1367.69 310.459 1365.33 310.459 1363.88 311.914C1362.42 313.369 1362.42 315.728 1363.88 317.183C1365.33 318.639 1367.69 318.639 1369.15 317.183Z" fill="white"/>
<g filter="url(#filter6_d)">
<path d="M425.5 89C430.194 89 434 85.1944 434 80.5C434 75.8056 430.194 72 425.5 72C420.806 72 417 75.8056 417 80.5C417 85.1944 420.806 89 425.5 89Z" fill="#8033FD"/>
</g>
<path d="M428.146 83.1834C429.601 81.7282 429.601 79.369 428.146 77.9138C426.691 76.4587 424.332 76.4587 422.878 77.9138C421.423 79.369 421.423 81.7282 422.878 83.1834C424.332 84.6385 426.691 84.6385 428.146 83.1834Z" fill="white"/>
<defs>
<filter id="filter0_d" x="1295" y="543" width="53" height="53" filterUnits="userSpaceOnUse" color-interpolation-filters="sRGB">
<feFlood flood-opacity="0" result="BackgroundImageFix"/>
<feColorMatrix in="SourceAlpha" type="matrix" values="0 0 0 0 0 0 0 0 0 0 0 0 0 0 0 0 0 0 127 0"/>
<feOffset dx="1" dy="4"/>
<feGaussianBlur stdDeviation="9"/>
<feColorMatrix type="matrix" values="0 0 0 0 0 0 0 0 0 0 0 0 0 0 0 0 0 0 0.25 0"/>
<feBlend mode="normal" in2="BackgroundImageFix" result="effect1_dropShadow"/>
<feBlend mode="normal" in="SourceGraphic" in2="effect1_dropShadow" result="shape"/>
</filter>
<filter id="filter1_d" x="1207" y="142" width="53" height="53" filterUnits="userSpaceOnUse" color-interpolation-filters="sRGB">
<feFlood flood-opacity="0" result="BackgroundImageFix"/>
<feColorMatrix in="SourceAlpha" type="matrix" values="0 0 0 0 0 0 0 0 0 0 0 0 0 0 0 0 0 0 127 0"/>
<feOffset dx="1" dy="4"/>
<feGaussianBlur stdDeviation="9"/>
<feColorMatrix type="matrix" values="0 0 0 0 0 0 0 0 0 0 0 0 0 0 0 0 0 0 0.25 0"/>
<feBlend mode="normal" in2="BackgroundImageFix" result="effect1_dropShadow"/>
<feBlend mode="normal" in="SourceGraphic" in2="effect1_dropShadow" result="shape"/>
</filter>
<filter id="filter2_d" x="132" y="249" width="53" height="53" filterUnits="userSpaceOnUse" color-interpolation-filters="sRGB">
<feFlood flood-opacity="0" result="BackgroundImageFix"/>
<feColorMatrix in="SourceAlpha" type="matrix" values="0 0 0 0 0 0 0 0 0 0 0 0 0 0 0 0 0 0 127 0"/>
<feOffset dx="1" dy="4"/>
<feGaussianBlur stdDeviation="9"/>
<feColorMatrix type="matrix" values="0 0 0 0 0 0 0 0 0 0 0 0 0 0 0 0 0 0 0.25 0"/>
<feBlend mode="normal" in2="BackgroundImageFix" result="effect1_dropShadow"/>
<feBlend mode="normal" in="SourceGraphic" in2="effect1_dropShadow" result="shape"/>
</filter>
<filter id="filter3_d" x="874" y="0" width="53" height="53" filterUnits="userSpaceOnUse" color-interpolation-filters="sRGB">
<feFlood flood-opacity="0" result="BackgroundImageFix"/>
<feColorMatrix in="SourceAlpha" type="matrix" values="0 0 0 0 0 0 0 0 0 0 0 0 0 0 0 0 0 0 127 0"/>
<feOffset dx="1" dy="4"/>
<feGaussianBlur stdDeviation="9"/>
<feColorMatrix type="matrix" values="0 0 0 0 0 0 0 0 0 0 0 0 0 0 0 0 0 0 0.25 0"/>
<feBlend mode="normal" in2="BackgroundImageFix" result="effect1_dropShadow"/>
<feBlend mode="normal" in="SourceGraphic" in2="effect1_dropShadow" result="shape"/>
</filter>
<filter id="filter4_d" x="166" y="548" width="53" height="53" filterUnits="userSpaceOnUse" color-interpolation-filters="sRGB">
<feFlood flood-opacity="0" result="BackgroundImageFix"/>
<feColorMatrix in="SourceAlpha" type="matrix" values="0 0 0 0 0 0 0 0 0 0 0 0 0 0 0 0 0 0 127 0"/>
<feOffset dx="1" dy="4"/>
<feGaussianBlur stdDeviation="9"/>
<feColorMatrix type="matrix" values="0 0 0 0 0 0 0 0 0 0 0 0 0 0 0 0 0 0 0.25 0"/>
<feBlend mode="normal" in2="BackgroundImageFix" result="effect1_dropShadow"/>
<feBlend mode="normal" in="SourceGraphic" in2="effect1_dropShadow" result="shape"/>
</filter>
<filter id="filter5_d" x="1341" y="292" width="53" height="53" filterUnits="userSpaceOnUse" color-interpolation-filters="sRGB">
<feFlood flood-opacity="0" result="BackgroundImageFix"/>
<feColorMatrix in="SourceAlpha" type="matrix" values="0 0 0 0 0 0 0 0 0 0 0 0 0 0 0 0 0 0 127 0"/>
<feOffset dx="1" dy="4"/>
<feGaussianBlur stdDeviation="9"/>
<feColorMatrix type="matrix" values="0 0 0 0 0 0 0 0 0 0 0 0 0 0 0 0 0 0 0.25 0"/>
<feBlend mode="normal" in2="BackgroundImageFix" result="effect1_dropShadow"/>
<feBlend mode="normal" in="SourceGraphic" in2="effect1_dropShadow" result="shape"/>
</filter>
<filter id="filter6_d" x="400" y="58" width="53" height="53" filterUnits="userSpaceOnUse" color-interpolation-filters="sRGB">
<feFlood flood-opacity="0" result="BackgroundImageFix"/>
<feColorMatrix in="SourceAlpha" type="matrix" values="0 0 0 0 0 0 0 0 0 0 0 0 0 0 0 0 0 0 127 0"/>
<feOffset dx="1" dy="4"/>
<feGaussianBlur stdDeviation="9"/>
<feColorMatrix type="matrix" values="0 0 0 0 0 0 0 0 0 0 0 0 0 0 0 0 0 0 0.25 0"/>
<feBlend mode="normal" in2="BackgroundImageFix" result="effect1_dropShadow"/>
<feBlend mode="normal" in="SourceGraphic" in2="effect1_dropShadow" result="shape"/>
</filter>
</defs>
</svg>
