<svg width="111" height="84" viewBox="0 0 111 84" fill="none" xmlns="http://www.w3.org/2000/svg">
<path fill-rule="evenodd" clip-rule="evenodd" d="M13.3555 9.33332C10.7449 9.33332 8.40383 7.72551 7.46667 5.28888L0.64354 20.6409C0.219238 21.5956 0 22.6287 0 23.6734V76.5333C0 80.6571 3.34294 84 7.46667 84H102.667C106.79 84 110.133 80.6571 110.133 76.5333V16.8C110.133 12.6763 106.79 9.33332 102.667 9.33332H13.3555ZM55.0667 28C53.5203 28 52.2667 29.2536 52.2667 30.8V44.8H38.2667C36.7203 44.8 35.4667 46.0536 35.4667 47.6C35.4667 49.1464 36.7203 50.4 38.2667 50.4H52.2667V64.4C52.2667 65.9464 53.5203 67.2 55.0667 67.2C56.6131 67.2 57.8667 65.9464 57.8667 64.4V50.4H71.8667C73.4131 50.4 74.6667 49.1464 74.6667 47.6C74.6667 46.0536 73.4131 44.8 71.8667 44.8H57.8667V30.8C57.8667 29.2536 56.6131 28 55.0667 28Z" fill="#8033FD"/>
<path d="M6.22217 9.95556C6.22217 4.45726 10.6794 0 16.1777 0H51.0222C56.5205 0 60.9777 4.45726 60.9777 9.95556V16.1778H6.22217V9.95556Z" fill="#8033FD"/>
</svg>
