<svg width="134" height="75" viewBox="0 0 134 75" fill="none" xmlns="http://www.w3.org/2000/svg">
<path d="M35 68H5V37C21.5678 37 35 50.6849 35 67.5642V68Z" fill="#442872"/>
<path d="M39.4261 68H35.5739C18.6864 68 5 54.3436 5 37.5C5 20.6564 18.6895 7 35.5739 7H70V37.5C70 54.3436 56.3136 68 39.4261 68Z" fill="#8033FF"/>
<path fill-rule="evenodd" clip-rule="evenodd" d="M69.0747 45.1394H73.953L75.3011 48H81.5155V47.178L71.0595 24.7535H70V35.3721L72.0459 40.1087H69.8534C69.7152 41.4044 69.4694 43.3091 69.0747 45.1394ZM104.703 48.0658L92.6026 36.1302V48H86.5855V24.8851H88.4597L100.461 36.2288V24.9837H106.478V48.0658H104.703ZM133.897 47.1122L129.392 39.8128C131.628 38.2784 132.768 36.0425 132.812 33.1052C132.812 30.9131 132.077 29.0061 130.609 27.384C129.162 25.7619 127.134 24.9508 124.526 24.9508C124.526 24.9289 122.838 24.9289 119.462 24.9508H114.398V47.9671H120.416V40.7663H123.572L127.518 47.9671H133.897V47.1122ZM124.493 35.8671H120.317V30.1788H124.493C125.304 30.1788 125.918 30.4528 126.334 31.0008C126.772 31.5269 126.992 32.1845 126.992 32.9736C126.992 33.7628 126.772 34.4423 126.334 35.0122C125.896 35.5822 125.282 35.8671 124.493 35.8671Z" fill="#3D3131"/>
<path fill-rule="evenodd" clip-rule="evenodd" d="M69.7195 24.7535L68.2976 24.7535L57.743 47.178V48H64.0232L65.3384 45.1394H68.9592C69.3628 43.6169 69.6974 41.9281 69.8898 40.1087H67.2783L69.6457 34.5519L69.9919 35.3534C69.9392 31.7365 69.8164 27.636 69.7195 24.7535ZM21.7217 47.9671H15.7046V24.9508H20.7682C24.1439 24.9289 25.8427 24.9289 25.8646 24.9508C28.4732 24.9508 30.5117 25.8167 31.9804 27.5484C33.4491 29.2582 34.1615 31.2748 34.1176 33.5984C34.1176 35.8781 33.3833 37.8509 31.9146 39.5169C30.4679 41.1828 28.4512 42.0158 25.8646 42.0158H21.7217V47.9671ZM21.6231 36.7878H25.8646C26.6099 36.7878 27.2127 36.459 27.6731 35.8014C28.1334 35.1218 28.3636 34.3327 28.3636 33.434C28.3636 32.5572 28.1444 31.8009 27.7059 31.1652C27.2675 30.5076 26.6538 30.1788 25.8646 30.1788H21.6231V36.7878ZM46.2901 24.9837V42.6076H54.6088V48H40.273V24.9837H46.2901Z" fill="white"/>
<path d="M6.5957 72.7666C10.1856 72.7666 13.0957 69.8565 13.0957 66.2666C13.0957 62.6768 10.1856 59.7666 6.5957 59.7666C3.00585 59.7666 0.0957031 62.6768 0.0957031 66.2666C0.0957031 69.8565 3.00585 72.7666 6.5957 72.7666Z" fill="#8033FF"/>
<path d="M8.61905 68.3187C9.73151 67.2059 9.73151 65.4018 8.61905 64.289C7.50658 63.1762 5.70293 63.1762 4.59046 64.289C3.478 65.4018 3.478 67.2059 4.59046 68.3187C5.70293 69.4314 7.50658 69.4314 8.61905 68.3187Z" fill="white"/>
<path d="M69.5 13.5C73.0899 13.5 76 10.5899 76 7C76 3.41015 73.0899 0.5 69.5 0.5C65.9101 0.5 63 3.41015 63 7C63 10.5899 65.9101 13.5 69.5 13.5Z" fill="#8033FF"/>
<path d="M71.5233 9.05206C72.6358 7.9393 72.6358 6.13516 71.5233 5.0224C70.4109 3.90964 68.6072 3.90964 67.4948 5.0224C66.3823 6.13516 66.3823 7.9393 67.4948 9.05206C68.6072 10.1648 70.4109 10.1648 71.5233 9.05206Z" fill="white"/>
</svg>
